<?xml version="1.0" encoding="utf-8"?>
<!-- Generator: Adobe Illustrator 21.1.0, SVG Export Plug-In . SVG Version: 6.00 Build 0)  -->
<svg version="1.1" id="Layer_1" xmlns="http://www.w3.org/2000/svg" xmlns:xlink="http://www.w3.org/1999/xlink" x="0px" y="0px"
	 viewBox="0 0 720 216" style="enable-background:new 0 0 720 216;" xml:space="preserve">
<style type="text/css">
	.st0{fill:#46BFAC;}
	.st1{fill:#434343;}
	.st2{enable-background:new    ;}
	.st3{fill:#45BEAB;}
</style>
<g>
	<g>
		<g>
			<path class="st0" d="M97.8,125.9c0,9.4,0,18.8,0,28.2c0,10.3,0,20.5,0,30.8c0,0.3,0.2,0.7-0.3,0.9c-0.3,0.1-0.5-0.2-0.7-0.4
				c-6-5.3-12-10.7-18-16c-0.6-0.5-0.9-1-0.9-1.9c0.1-5.1,0.1-10.3,0.1-15.4c0.1-7.2-0.1-14.4-0.1-21.6c0-1.5,0.1-3.1,0.1-4.6
				c0-7,0-14,0-21c0-0.4-0.2-0.7-0.2-1.1c0.3-0.4,0.2-0.8,0.2-1.2c0-13.4,0-26.8,0-40.2c0-1.2-0.6-1.2-1.4-1.2
				c-17.6,0-35.2,0-52.7,0c-1.2,0-2.5,0-3.7,0c-0.3,0-0.7,0.1-0.8-0.2c-0.1-0.3,0.2-0.4,0.4-0.6c4.7-5.3,9.5-10.5,14.2-15.8
				c1.4-1.5,2.8-3,4.1-4.6c0.6-0.7,1.2-0.9,2.1-0.9c24.7,0,49.5,0,74.2,0c13.6,0,27.2,0,40.9,0c0.4,0,0.8-0.1,1.2,0.3
				c-1.4,1.6-2.8,3.1-4.2,4.7c-4.8,5.4-9.7,10.8-14.5,16.2c-0.6,0.7-1.3,1-2.2,1c-12,0-24,0-36,0c-1.7,0-1.7,0-1.7,1.7
				c0,13.2,0,26.5,0,39.7c0,0.4,0,0.8,0,1.1c-0.2,0.3-0.2,0.6-0.2,1c0,6.7,0,13.4,0,20.1C97.6,125.2,97.6,125.6,97.8,125.9z"/>
			<path class="st1" d="M97.8,125.9c-0.2-0.3-0.2-0.6-0.2-1c0-6.7,0-13.4,0-20.1c0-0.3,0-0.7,0.2-1c15.4,0,30.7,0,46.1,0
				c1.7,0,1.7,0,1.6-1.6c-0.3-10-0.6-20-0.9-30c0-0.9,0.3-1.6,0.9-2.2c6.5-6.8,12.9-13.7,19.4-20.5c0.4-0.4,0.6-1,1.4-1.3
				c0,1.2,0,2.4,0,3.6c0,17.3,0,34.6,0,51.9c0,21-0.1,42,0,63c0,2.4-0.7,3.9-2.5,5.3c-3.5,2.7-6.8,5.6-10.2,8.5
				c-2.3,1.9-4.6,3.9-6.8,5.8c-0.4-0.2-0.3-0.4-0.3-0.7c0-19.3,0-38.6,0-57.9c0-1.3-0.4-1.6-1.6-1.6
				C129.2,125.9,113.5,125.9,97.8,125.9z"/>
		</g>
		<path class="st1" d="M77.9,103.8c0.1,0.4,0.2,0.7,0.2,1.1c0,7,0,14,0,21c-12.5,0-24.9,0-37.4,0c-1,0-1.7-0.3-2.3-1
			c-6-6.7-12-13.4-18-20.1c-0.2-0.2-0.6-0.4-0.4-0.7c0.2-0.4,0.7-0.2,1-0.2C40,103.8,58.9,103.8,77.9,103.8z"/>
	</g>
	<g class="st2">
		<path class="st1" d="M252.5,64c0,0.5-1.1,1.1-1.6,1.1c-0.2,0-0.2,0-0.3-0.4l-5.3-15.5c-0.5-1.6-1.1-2-2.7-2.3s-10.3-1.3-13.8-1.1
			c-0.6,10.7-1.1,41.6-1.3,49.1c0,10.5-0.8,47-0.8,52.5c0,1.6,0.5,2,1.6,2.3l5.9,1.4c0.3,0.2,0.6,0.9,0.6,1.6c0,0.5,0,0.5-0.3,0.5
			c-2.9-0.2-7.2-0.4-13-0.4c-5.1,0-9,0.2-12,0.4c-0.3,0-0.3-0.2-0.3-0.4c0-0.5,0.2-1.6,0.6-1.8l5.6-1.6c1-0.2,1.4-0.5,1.4-2.5
			c0-5.9-0.5-45-0.5-51.8c-0.2-7.1-0.5-36.4-0.8-49.5c-3.4-0.2-11.1,0.2-13.7,0.9c-1.4,0.4-2.4,0.7-2.9,2l-5.6,15.7
			c-0.2,0.4-0.2,0.4-0.3,0.4c-0.6,0-1.4-0.5-1.4-0.9l0.8-20.4c0-0.9,0.2-1.3,1.1-1.2c2.1,0,6.6,0.7,28.8,0.7
			c20.6,0,26.5-0.7,28.6-0.7c0.8,0,1,0.4,1,1.4L252.5,64z"/>
		<path class="st1" d="M306.2,152.6c-0.2,0.7-0.5,1.1-1.3,1.1c-0.6,0-2.9-0.2-8-0.4c-5.3-0.2-13.5-0.4-26.2-0.4
			c-4.2,0-9.2,0.2-13,0.4c-0.3,0-0.3-0.2-0.3-0.4c0-0.5,0.2-1.6,0.8-1.8l5.3-1.4c1-0.2,1.6-0.9,1.6-2.9c0.3-5.4,0-44.8,0-51.6
			c-0.2-6.8-0.2-41.6-0.5-45.7c-0.2-2-0.5-2.9-1.9-3.2l-4.8-1.3c-0.5-0.2-0.6-1.1-0.6-1.8c0-0.4,0-0.5,0.3-0.5
			c2.9,0,7.9,0.2,12.2,0.2c24.9,0,32.9-0.4,34.7-0.4c0.8,0,1,0.4,1,1.2l0.3,17.9c0,0.7-1,1.4-1.4,1.4c-0.2,0-0.3,0-0.5-0.4
			c-1.3-4.6-2.9-8.9-4.3-13.6c-0.5-1.4-1.6-1.8-3.2-2.1c-4.5-0.5-14-1.4-17-1.2c-1.3,0-1.4,0.4-1.4,1.1c-0.8,11.8-1.6,41.8-1.4,47
			c9.6,0.4,21.4,0.9,24.7,0.9c0.3,0,0.3,0.2,0.3,0.4c0,0.9-0.6,2.3-1.1,2.3c-3.4,0.4-14.8,0.7-22.5,1.2c-1.4,0.2-1.8,0.7-1.8,2
			c-0.2,6.6-0.8,43.6-0.8,47c0,1.8,0.3,2.3,1.4,2.3c7.1,0,14.5-0.4,21.5-1.4c1.8-0.4,2.9-1.3,3.7-2.9c1.9-3.7,3.9-7.7,5.6-11.4
			c0.2-0.4,0.3-0.4,0.5-0.4c0.5,0,1.4,0.9,1.3,1.6L306.2,152.6z"/>
		<path class="st1" d="M363.9,152.6c-0.2,0.7-0.5,1.1-1.3,1.1c-0.6,0-2.9-0.2-8-0.4c-5.3-0.2-13.5-0.4-26.2-0.4
			c-4.2,0-9.2,0.2-13,0.4c-0.3,0-0.3-0.2-0.3-0.4c0-0.5,0.2-1.6,0.8-1.8l5.3-1.4c1-0.2,1.6-0.9,1.6-2.9c0.3-5.4,0-44.8,0-51.6
			c-0.2-6.8-0.2-41.6-0.5-45.7c-0.2-2-0.5-2.9-1.9-3.2l-4.8-1.3c-0.5-0.2-0.6-1.1-0.6-1.8c0-0.4,0-0.5,0.3-0.5
			c2.9,0,7.9,0.2,12.2,0.2c24.9,0,32.9-0.4,34.7-0.4c0.8,0,1,0.4,1,1.2l0.3,17.9c0,0.7-1,1.4-1.4,1.4c-0.2,0-0.3,0-0.5-0.4
			c-1.3-4.6-2.9-8.9-4.3-13.6c-0.5-1.4-1.6-1.8-3.2-2.1c-4.5-0.5-14-1.4-17-1.2c-1.3,0-1.4,0.4-1.4,1.1c-0.8,11.8-1.6,41.8-1.4,47
			c9.6,0.4,21.4,0.9,24.7,0.9c0.3,0,0.3,0.2,0.3,0.4c0,0.9-0.6,2.3-1.1,2.3c-3.4,0.4-14.8,0.7-22.5,1.2c-1.4,0.2-1.8,0.7-1.8,2
			c-0.2,6.6-0.8,43.6-0.8,47c0,1.8,0.3,2.3,1.4,2.3c7.1,0,14.5-0.4,21.5-1.4c1.8-0.4,2.9-1.3,3.7-2.9c1.9-3.7,3.9-7.7,5.6-11.4
			c0.2-0.4,0.3-0.4,0.5-0.4c0.5,0,1.4,0.9,1.3,1.6L363.9,152.6z"/>
		<path class="st1" d="M419.3,123.8c0,16.1-11.9,30.5-32.8,30.5c-2.9,0-7.7-0.5-9.6-1.3c-0.5-0.2-0.6-0.5-0.8-1.3l-2.1-18
			c-0.2-0.7,1.1-1.6,1.8-1.6c0.2,0,0.3,0,0.5,0.2c1.8,4.8,3.9,9.6,5.9,13.9c0.6,1.6,1.1,2.1,2.1,2.9c1.3,1.1,3.9,1.3,6.6,1.3
			c8.8,0,19.1-6.2,19.1-20.7c0-12.1-6.6-19.5-17.7-28.4c-9.6-8-15.4-17.3-15.4-28.9c0-15.4,12.4-30.9,29.2-30.9c4,0,7.6,0.5,9.3,1.6
			c0.5,0.4,0.6,0.5,0.8,1.6l1.4,17.9c0,0.5-1.1,1.2-1.6,1.2c-0.2,0-0.3,0-0.5-0.4c-1.6-4.6-3.5-9.5-5.5-14.1c-0.5-0.9-1-1.6-1.9-2.5
			c-1.1-0.9-3.4-1.4-5.6-1.4c-9.3,0-15.6,8.7-15.6,20.9c0,9.5,3.9,15.9,14,25.2c9.8,8.9,18.3,18.2,18.3,32.1V123.8z"/>
	</g>
	<g class="st2">
		<path class="st3" d="M456.1,43c0.3,0,0.3,0.2,0.3,0.4c0,0.7-0.3,2-0.8,2l-4.8,1.1c-1.3,0.2-1.8,0.9-1.8,1.8
			c-0.6,12-1.1,40.9-1.1,44.1c0,2,0.3,2.3,1.8,2.5c7.9,0.2,21.7,0.5,28.6,0.4c0.3-5.5-0.3-43.4-0.3-45.5c0-2.1-0.5-3-1.8-3.2
			l-4.8-1.1c-0.5-0.2-0.8-1.1-0.8-2c0-0.2,0-0.4,0.3-0.4h25.9c0.3,0,0.3,0.2,0.3,0.5c0,0.7-0.3,1.8-0.6,1.8l-3.7,0.9
			c-1.1,0.2-1.6,0.7-1.8,3.4c-0.5,6.4-1.4,36.1-1.8,47.3c-0.2,8.4-1,46.8-1,49.5c0,2.1,0.2,2.9,1.3,3.2l5.1,1.8
			c0.3,0,0.6,0.9,0.6,1.6c0,0.2,0,0.4-0.3,0.4c-1.4-0.2-6.6-0.4-11.2-0.4c-5.6,0-10.4,0.2-12.7,0.4c-0.5,0-0.5-0.2-0.5-0.4
			c0-0.7,0.3-1.4,0.8-1.6l5.5-1.8c1-0.4,1.3-0.7,1.4-2.1c0.3-4.8,0-44.6,0-49.3c-7.4,0.2-22.2,0.9-28.9,1.2c-1.3,0-1.6,0.5-1.6,1.8
			c-0.3,6.4-1,40.3-0.6,46.6c0,1.3,0.5,1.8,1.4,2l6.1,1.6c0.5,0.2,0.8,0.9,0.8,1.4c0,0.4,0,0.5-0.3,0.5c-2.9-0.2-7.1-0.4-13-0.4
			c-5.1,0-9.3,0.2-11.7,0.4c-0.3,0-0.3-0.2-0.3-0.5c0-0.5,0.3-1.3,0.6-1.4l5-1.6c1.1-0.4,1.4-0.7,1.4-2.7c0-5.9-0.3-43.2-0.3-50
			c0-6.8-0.6-44.3-0.6-47.3c0-2-0.5-3.2-1.9-3.4l-4.2-1.1c-0.5-0.2-0.8-1.1-0.8-1.8c0-0.4,0-0.5,0.5-0.5H456.1z"/>
		<path class="st3" d="M531.7,154.4c-15.9,0-26.7-16.1-26.7-50.7c0-34.6,11.4-62.1,31.5-62.1c18.2,0,26.5,21.1,26.5,51.6
			c0,40-12.9,61.2-31.2,61.2H531.7z M533.6,151.5c10.9,0,17.3-21.6,17.3-57.3c0-25.5-4-50-15.6-50c-12.4,0-18.3,27.3-18.3,58.2
			c0,30.9,6.7,49.1,16.4,49.1H533.6z"/>
		<path class="st3" d="M601,154.4c-15.9,0-26.7-16.1-26.7-50.7c0-34.6,11.4-62.1,31.5-62.1c18.2,0,26.5,21.1,26.5,51.6
			c0,40-12.9,61.2-31.2,61.2H601z M602.9,151.5c10.9,0,17.3-21.6,17.3-57.3c0-25.5-4-50-15.6-50c-12.4,0-18.3,27.3-18.3,58.2
			c0,30.9,6.7,49.1,16.4,49.1H602.9z"/>
		<path class="st3" d="M639.8,46.4c-0.6,0-1-1.1-1-2c0-0.2,0-0.4,0.3-0.4c4.3-0.9,15.3-2.1,25.5-2.1c23.1,0,37.6,18,37.6,50.5
			c0,35-14.9,60.9-40,60.9c-2.9,0-8-0.4-10.8-0.4c-3.1,0-7.9,0.2-10.6,0.4c-0.5,0-0.5-0.2-0.5-0.5c0-0.5,0.3-1.4,0.8-1.6l5.5-1.6
			c1.1-0.2,1.4-0.9,1.4-2.9c0.2-5.9-0.3-44.8-0.3-51.6c0-6.8-0.5-41.8-0.5-45.5c0-2-0.5-2.7-2.1-2.9L639.8,46.4z M662.6,150.4
			c13.8,0,27.6-17.1,27.6-56.4c0-31.1-11.1-49.3-25.1-49.3c-3.1,0-4.5,0.7-4.7,3.2c-1.1,12.7-2.2,96.8-2.2,100
			c0,1.6,1.1,2.5,4.2,2.5H662.6z"/>
	</g>
	<g class="st2">
		<path class="st1" d="M226.2,195.7c-1.2,0.6-3.6,1.2-6.7,1.2c-7.2,0-12.6-4.5-12.6-12.9c0-8,5.4-13.4,13.3-13.4
			c3.2,0,5.2,0.7,6,1.1l-0.8,2.7c-1.2-0.6-3-1.1-5.1-1.1c-6,0-9.9,3.8-9.9,10.5c0,6.2,3.6,10.2,9.8,10.2c2,0,4-0.4,5.4-1.1
			L226.2,195.7z"/>
		<path class="st1" d="M245,191.6c0,1.9,0,3.5,0.2,5h-2.9l-0.2-3H242c-0.9,1.5-2.8,3.4-6,3.4c-2.9,0-6.3-1.6-6.3-8v-10.7h3.3v10.1
			c0,3.5,1.1,5.8,4.1,5.8c2.2,0,3.8-1.5,4.4-3c0.2-0.5,0.3-1.1,0.3-1.7v-11.2h3.3V191.6z"/>
		<path class="st1" d="M250.1,193.2c1,0.6,2.7,1.3,4.4,1.3c2.4,0,3.5-1.2,3.5-2.7c0-1.6-0.9-2.5-3.4-3.4c-3.3-1.2-4.8-3-4.8-5.2
			c0-2.9,2.4-5.4,6.3-5.4c1.9,0,3.5,0.5,4.5,1.1l-0.8,2.4c-0.7-0.5-2-1.1-3.7-1.1c-2,0-3.1,1.1-3.1,2.5c0,1.5,1.1,2.2,3.5,3.1
			c3.2,1.2,4.8,2.8,4.8,5.5c0,3.2-2.5,5.5-6.8,5.5c-2,0-3.9-0.5-5.1-1.2L250.1,193.2z"/>
		<path class="st1" d="M269.5,173v5.3h4.8v2.5h-4.8v9.9c0,2.3,0.6,3.5,2.5,3.5c0.9,0,1.5-0.1,1.9-0.2l0.2,2.5
			c-0.6,0.3-1.7,0.5-2.9,0.5c-1.5,0-2.8-0.5-3.6-1.4c-0.9-1-1.3-2.6-1.3-4.8v-10h-2.8v-2.5h2.8v-4.4L269.5,173z"/>
		<path class="st1" d="M294.3,187.3c0,6.8-4.7,9.7-9.1,9.7c-4.9,0-8.8-3.6-8.8-9.4c0-6.1,4-9.7,9.1-9.7
			C290.7,177.9,294.3,181.7,294.3,187.3z M279.8,187.5c0,4,2.3,7,5.6,7c3.2,0,5.6-3,5.6-7.1c0-3.1-1.5-7-5.5-7
			S279.8,184,279.8,187.5z"/>
		<path class="st1" d="M298.5,183.2c0-1.9,0-3.4-0.2-4.9h2.9l0.2,2.9h0.1c1-1.7,2.7-3.4,5.7-3.4c2.5,0,4.4,1.5,5.2,3.7h0.1
			c0.6-1,1.3-1.8,2-2.4c1.1-0.8,2.3-1.3,4-1.3c2.4,0,6,1.6,6,7.9v10.8h-3.2v-10.3c0-3.5-1.3-5.6-4-5.6c-1.9,0-3.4,1.4-3.9,3
			c-0.2,0.5-0.3,1.1-0.3,1.7v11.3h-3.2v-11c0-2.9-1.3-5-3.8-5c-2.1,0-3.6,1.7-4.1,3.3c-0.2,0.5-0.3,1.1-0.3,1.6v11h-3.2V183.2z"/>
		<path class="st1" d="M333.7,173.1c0,1.1-0.8,2-2.1,2c-1.2,0-2-0.9-2-2c0-1.2,0.9-2.1,2.1-2.1C332.9,171.1,333.7,172,333.7,173.1z
			 M330,196.6v-18.3h3.3v18.3H330z"/>
		<path class="st1" d="M338.4,193.2c1,0.6,2.7,1.3,4.4,1.3c2.4,0,3.5-1.2,3.5-2.7c0-1.6-0.9-2.5-3.4-3.4c-3.3-1.2-4.8-3-4.8-5.2
			c0-2.9,2.4-5.4,6.3-5.4c1.9,0,3.5,0.5,4.5,1.1l-0.8,2.4c-0.7-0.5-2-1.1-3.7-1.1c-2,0-3.1,1.1-3.1,2.5c0,1.5,1.1,2.2,3.5,3.1
			c3.2,1.2,4.8,2.8,4.8,5.5c0,3.2-2.5,5.5-6.8,5.5c-2,0-3.9-0.5-5.1-1.2L338.4,193.2z"/>
		<path class="st1" d="M355.6,188c0.1,4.5,2.9,6.3,6.3,6.3c2.4,0,3.8-0.4,5.1-0.9l0.6,2.4c-1.2,0.5-3.2,1.1-6.1,1.1
			c-5.6,0-9-3.7-9-9.2s3.2-9.9,8.6-9.9c6,0,7.6,5.3,7.6,8.6c0,0.7-0.1,1.2-0.1,1.5H355.6z M365.4,185.6c0-2.1-0.9-5.4-4.6-5.4
			c-3.4,0-4.8,3.1-5.1,5.4H365.4z"/>
		<path class="st1" d="M388.5,169.7v22.1c0,1.6,0,3.5,0.2,4.7h-3l-0.2-3.2h-0.1c-1,2-3.2,3.6-6.2,3.6c-4.4,0-7.8-3.7-7.8-9.3
			c0-6.1,3.7-9.8,8.2-9.8c2.8,0,4.7,1.3,5.5,2.8h0.1v-10.9H388.5z M385.2,185.7c0-0.4,0-1-0.2-1.4c-0.5-2.1-2.3-3.9-4.8-3.9
			c-3.4,0-5.5,3-5.5,7.1c0,3.7,1.8,6.8,5.4,6.8c2.2,0,4.3-1.5,4.9-4c0.1-0.5,0.2-0.9,0.2-1.4V185.7z"/>
		<path class="st1" d="M423.6,185.4c-0.2-3.5-0.4-7.8-0.4-11h-0.1c-0.9,3-1.9,6.2-3.2,9.7l-4.5,12.3h-2.5l-4.1-12.1
			c-1.2-3.6-2.2-6.9-2.9-9.9h-0.1c-0.1,3.2-0.3,7.4-0.5,11.3l-0.7,10.9h-3.1l1.8-25.5h4.2l4.3,12.3c1.1,3.1,1.9,5.9,2.6,8.6h0.1
			c0.6-2.6,1.5-5.4,2.7-8.6l4.5-12.3h4.2l1.6,25.5h-3.2L423.6,185.4z"/>
		<path class="st1" d="M434.4,188c0.1,4.5,2.9,6.3,6.3,6.3c2.4,0,3.8-0.4,5.1-0.9l0.6,2.4c-1.2,0.5-3.2,1.1-6.1,1.1
			c-5.6,0-9-3.7-9-9.2s3.2-9.9,8.6-9.9c6,0,7.6,5.3,7.6,8.6c0,0.7-0.1,1.2-0.1,1.5H434.4z M444.2,185.6c0-2.1-0.9-5.4-4.6-5.4
			c-3.4,0-4.8,3.1-5.1,5.4H444.2z"/>
		<path class="st1" d="M451.5,184c0-2.2,0-4-0.2-5.7h2.9l0.1,3.6h0.2c0.8-2.5,2.8-4,5.1-4c0.4,0,0.6,0,0.9,0.1v3.1
			c-0.3-0.1-0.7-0.1-1.1-0.1c-2.3,0-4,1.8-4.5,4.3c-0.1,0.5-0.2,1-0.2,1.5v9.7h-3.3V184z"/>
		<path class="st1" d="M476.5,195.9c-0.9,0.5-2.8,1.1-5.2,1.1c-5.5,0-9.1-3.7-9.1-9.3c0-5.6,3.9-9.7,9.8-9.7c2,0,3.7,0.5,4.6,0.9
			l-0.8,2.6c-0.8-0.5-2-0.9-3.9-0.9c-4.2,0-6.5,3.1-6.5,6.9c0,4.2,2.7,6.8,6.3,6.8c1.9,0,3.1-0.5,4.1-0.9L476.5,195.9z"/>
		<path class="st1" d="M480.4,169.7h3.3v11.4h0.1c0.5-0.9,1.4-1.8,2.4-2.3c1-0.6,2.2-0.9,3.4-0.9c2.5,0,6.4,1.5,6.4,7.8v10.9h-3.3
			v-10.5c0-2.9-1.1-5.4-4.2-5.4c-2.2,0-3.9,1.5-4.5,3.3c-0.2,0.5-0.2,0.9-0.2,1.6v11h-3.3V169.7z"/>
		<path class="st1" d="M511.5,196.6l-0.3-2.3h-0.1c-1,1.4-3,2.7-5.6,2.7c-3.7,0-5.6-2.6-5.6-5.2c0-4.4,3.9-6.8,11-6.8v-0.4
			c0-1.5-0.4-4.2-4.2-4.2c-1.7,0-3.5,0.5-4.8,1.4l-0.8-2.2c1.5-1,3.7-1.6,6-1.6c5.6,0,6.9,3.8,6.9,7.5v6.8c0,1.6,0.1,3.1,0.3,4.4
			H511.5z M511,187.2c-3.6-0.1-7.7,0.6-7.7,4.1c0,2.2,1.4,3.2,3.1,3.2c2.4,0,3.9-1.5,4.4-3.1c0.1-0.3,0.2-0.7,0.2-1.1V187.2z"/>
		<path class="st1" d="M519.6,183.2c0-1.9,0-3.4-0.2-4.9h2.9l0.2,3h0.1c0.9-1.7,3-3.4,6-3.4c2.5,0,6.5,1.5,6.5,7.8v10.9h-3.3V186
			c0-2.9-1.1-5.4-4.2-5.4c-2.2,0-3.9,1.5-4.5,3.4c-0.2,0.4-0.2,1-0.2,1.5v11h-3.3V183.2z"/>
		<path class="st1" d="M556.3,169.7v22.1c0,1.6,0,3.5,0.2,4.7h-3l-0.2-3.2h-0.1c-1,2-3.2,3.6-6.2,3.6c-4.4,0-7.8-3.7-7.8-9.3
			c0-6.1,3.7-9.8,8.2-9.8c2.8,0,4.7,1.3,5.5,2.8h0.1v-10.9H556.3z M553,185.7c0-0.4,0-1-0.2-1.4c-0.5-2.1-2.3-3.9-4.8-3.9
			c-3.4,0-5.5,3-5.5,7.1c0,3.7,1.8,6.8,5.4,6.8c2.2,0,4.3-1.5,4.9-4c0.1-0.5,0.2-0.9,0.2-1.4V185.7z"/>
		<path class="st1" d="M565.5,173.1c0,1.1-0.8,2-2.1,2c-1.2,0-2-0.9-2-2c0-1.2,0.9-2.1,2.1-2.1C564.7,171.1,565.5,172,565.5,173.1z
			 M561.8,196.6v-18.3h3.3v18.3H561.8z"/>
		<path class="st1" d="M570.2,193.2c1,0.6,2.7,1.3,4.4,1.3c2.4,0,3.5-1.2,3.5-2.7c0-1.6-0.9-2.5-3.4-3.4c-3.3-1.2-4.8-3-4.8-5.2
			c0-2.9,2.4-5.4,6.3-5.4c1.9,0,3.5,0.5,4.5,1.1l-0.8,2.4c-0.7-0.5-2-1.1-3.7-1.1c-2,0-3.1,1.1-3.1,2.5c0,1.5,1.1,2.2,3.5,3.1
			c3.2,1.2,4.8,2.8,4.8,5.5c0,3.2-2.5,5.5-6.8,5.5c-2,0-3.9-0.5-5.1-1.2L570.2,193.2z"/>
		<path class="st1" d="M587.5,188c0.1,4.5,2.9,6.3,6.3,6.3c2.4,0,3.8-0.4,5.1-0.9l0.6,2.4c-1.2,0.5-3.2,1.1-6.1,1.1
			c-5.6,0-9-3.7-9-9.2s3.2-9.9,8.6-9.9c6,0,7.6,5.3,7.6,8.6c0,0.7-0.1,1.2-0.1,1.5H587.5z M597.2,185.6c0-2.1-0.9-5.4-4.6-5.4
			c-3.4,0-4.8,3.1-5.1,5.4H597.2z"/>
		<path class="st1" d="M612.2,192.6c1.5,0.9,3.6,1.7,5.9,1.7c3.4,0,5.3-1.8,5.3-4.3c0-2.4-1.4-3.7-4.8-5.1c-4.2-1.5-6.7-3.6-6.7-7.2
			c0-4,3.3-6.9,8.2-6.9c2.6,0,4.5,0.6,5.6,1.2l-0.9,2.7c-0.8-0.5-2.5-1.2-4.8-1.2c-3.5,0-4.8,2.1-4.8,3.8c0,2.4,1.5,3.5,5.1,4.9
			c4.3,1.7,6.5,3.7,6.5,7.5c0,3.9-2.9,7.3-8.9,7.3c-2.5,0-5.1-0.7-6.5-1.6L612.2,192.6z"/>
		<path class="st1" d="M635,173v5.3h4.8v2.5H635v9.9c0,2.3,0.6,3.5,2.5,3.5c0.9,0,1.5-0.1,1.9-0.2l0.2,2.5c-0.6,0.3-1.7,0.5-2.9,0.5
			c-1.5,0-2.8-0.5-3.6-1.4c-0.9-1-1.3-2.6-1.3-4.8v-10H629v-2.5h2.8v-4.4L635,173z"/>
		<path class="st1" d="M659.8,187.3c0,6.8-4.7,9.7-9.1,9.7c-4.9,0-8.8-3.6-8.8-9.4c0-6.1,4-9.7,9.1-9.7
			C656.3,177.9,659.8,181.7,659.8,187.3z M645.3,187.5c0,4,2.3,7,5.6,7c3.2,0,5.6-3,5.6-7.1c0-3.1-1.5-7-5.5-7
			C647,180.4,645.3,184,645.3,187.5z"/>
		<path class="st1" d="M664,184c0-2.2,0-4-0.2-5.7h2.9l0.1,3.6h0.2c0.8-2.5,2.8-4,5.1-4c0.4,0,0.6,0,0.9,0.1v3.1
			c-0.3-0.1-0.7-0.1-1.1-0.1c-2.3,0-4,1.8-4.5,4.3c-0.1,0.5-0.2,1-0.2,1.5v9.7H664V184z"/>
		<path class="st1" d="M677.9,188c0.1,4.5,2.9,6.3,6.3,6.3c2.4,0,3.8-0.4,5.1-0.9l0.6,2.4c-1.2,0.5-3.2,1.1-6.1,1.1
			c-5.6,0-9-3.7-9-9.2s3.2-9.9,8.6-9.9c6,0,7.6,5.3,7.6,8.6c0,0.7-0.1,1.2-0.1,1.5H677.9z M687.6,185.6c0-2.1-0.9-5.4-4.6-5.4
			c-3.4,0-4.8,3.1-5.1,5.4H687.6z"/>
	</g>
</g>
</svg>
